{"title":"Nil Gavani Sellaade [2011] TC Rip XviD Mp3 DAYN-D3MT","uid":6312986,"size":751399026,"categoryP":"video","categoryS":"movies","magnet":"?xt=urn:btih:39aee106243223d670e8d4300cc193d7b3806233&amp;dn=Nil+Gavani+Sellaade+%5B2011%5D+TC+Rip+XviD+Mp3+DAYN-D3MT&amp;tr=udp%3A%2F%2Ftracker.openbittorrent.com%3A80&amp;tr=udp%3A%2F%2Fopen.demonii.com%3A1337&amp;tr=udp%3A%2F%2Ftracker.coppersurfer.tk%3A6969&amp;tr=udp%3A%2F%2Fexodus.desync.com%3A6969","seeders":0,"leechers":0,"uploader":"arihantkatariya","files":3,"time":1302605627,"description":"[quote]Format                           : AVI\nFormat/Info                      : Audio Video Interleave\nFile size                        : 717 MiB\nDuration                         : 1h 57mn\nOverall bit rate                 : 853 Kbps\n\nVideo\nID                               : 0\nFormat                           : MPEG-4 Visual\nFormat profile                   : Advanced Simple@L5\nFormat settings, BVOP            : 2\nFormat settings, QPel            : No\nFormat settings, GMC             : No warppoints\nFormat settings, Matrix          : Default (H.263)\nCodec ID                         : XVID\nCodec ID/Hint                    : XviD\nDuration                         : 1h 57mn\nBit rate                         : 753 Kbps\nWidth                            : 608 pixels\nHeight                           : 256 pixels\nDisplay aspect ratio             : 2.35:1\nFrame rate                       : 23.976 fps\nColor space                      : YUV\nChroma subsampling               : 4:2:0\nBit depth                        : 8 bits\nScan type                        : Progressive\nCompression mode                 : Lossy\nBits/(Pixel*Frame)               : 0.202\nStream size                      : 633 MiB (88%)\nWriting library                  : XviD 1.2.1 (UTC 2008-12-04)\n\nAudio\nID                               : 1\nFormat                           : MPEG Audio\nFormat version                   : Version 1\nFormat profile                   : Layer 3\nCodec ID                         : 55\nCodec ID/Hint                    : MP3\nDuration                         : 1h 57mn\nBit rate mode                    : Variable\nBit rate                         : 87.3 Kbps\nMinimum bit rate                 : 32.0 Kbps\nChannel(s)                       : 1 channel\nSampling rate                    : 48.0 KHz\nCompression mode                 : Lossy\nStream size                      : 73.3 MiB (10%)\nAlignment                        : Aligned on interleaves\nInterleave, duration             : 24 ms (0.58 video frame)\nInterleave, preload duration     : 219 ms\nTitle                            : nilkavani silathey T80 2_0ch\n\n\nFOR SCREENS AND MORE QUALITY STUFF LOG ON TOSEARCH ON GOOGLE U WILL FIND IT EASILY[/quote]","torrent":{"xt":"urn:btih:39aee106243223d670e8d4300cc193d7b3806233","amp;dn":"Nil+Gavani+Sellaade+%5B2011%5D+TC+Rip+XviD+Mp3+DAYN-D3MT","amp;tr":["udp%3A%2F%2Ftracker.openbittorrent.com%3A80","udp%3A%2F%2Fopen.demonii.com%3A1337","udp%3A%2F%2Ftracker.coppersurfer.tk%3A6969","udp%3A%2F%2Fexodus.desync.com%3A6969"],"infoHash":"39aee106243223d670e8d4300cc193d7b3806233","infoHashBuffer":{"type":"Buffer","data":[57,174,225,6,36,50,35,214,112,232,212,48,12,193,147,215,179,128,98,51]},"announce":[],"urlList":[]}}